<?xml version="1.0" encoding="utf-8"?>
<!-- Generator: Adobe Illustrator 23.0.3, SVG Export Plug-In . SVG Version: 6.00 Build 0)  -->
<svg version="1.1" id="Calque_1" xmlns="http://www.w3.org/2000/svg" xmlns:xlink="http://www.w3.org/1999/xlink" x="0px" y="0px"
	 viewBox="0 0 1200 1318" style="enable-background:new 0 0 1200 1318;" xml:space="preserve">
<style type="text/css">
	.st0{fill:#E33775;}
</style>
<g>
	<path class="st0" d="M362.78,640.4c4.5,5.57,10.09,9.77,16.53,12.83c1.08,0.52,2.22,0.98,3.51,0.95c1.8-0.05,2.51-0.85,2.11-2.58
		c-1.97-8.5-1.26-16.7,3.02-24.41c1.25-2.26,1.15-4.42-0.07-6.53c-0.75-1.31-1.73-2.54-2.81-3.6c-3.86-3.8-8.34-6.69-13.42-8.6
		c-1.28-0.48-2.63-0.85-3.98-1.03c-2.51-0.35-4.52,0.46-5.62,2.92c-0.43,0.98-0.95,1.93-1.3,2.93c-1.76,4.95-2.67,10.03-2.3,16.05
		C358.42,633.05,360,636.97,362.78,640.4z"/>
	<path class="st0" d="M568.6,668.61c-1.12,1.45-2.12,3.01-3,4.62c-1.54,2.82-2.99,5.69-4.4,8.57c-4.37,8.94-8.31,18.07-11.8,27.39
		c-2.41,6.45-4.92,12.86-8,19.03c-0.75,1.5-1.63,2.94-2.44,4.41c-0.19,0.35-0.44,0.47-0.74,0.25c-0.22-0.16-0.49-0.39-0.54-0.63
		c-0.19-0.9-0.33-1.8-0.42-2.71c-0.55-5.95-0.77-11.93-0.51-17.89c0.6-13.76,2.01-27.46,4.13-41.07c1.18-7.55,2.62-15.07,3.85-22.61
		c0.64-3.93,1.02-7.88,0.67-11.88c-0.24-2.88-1.28-5.33-3.25-7.4c-0.84-0.89-1.7-1.77-2.63-2.55c-4.97-4.15-10.46-7.44-16.5-9.81
		c-1.57-0.61-3.16-1.09-4.84-1.38c-2.6-0.45-4.9,0.1-6.84,1.81c-1.84,1.61-3.56,3.36-5.29,5.08c-1.07,1.07-1.89,2.78-3.15,3.21
		c-1.67,0.56-2.86-1.36-4.24-2.21c-7.18-4.49-14.64-8.28-23.03-9.95c-8.24-1.64-15.79-0.14-22.59,4.89
		c-3.35,2.48-6.27,5.37-8.83,8.65c-3.12,4-5.74,8.31-7.98,12.85c-4.22,8.56-7.31,17.5-9.29,26.75c-2,3.4-3.73,6.94-5.41,10.51
		c-6.71,14.26-12.96,28.71-18.45,43.49c-3.09,8.32-6.68,16.43-11.08,24.17c-2.51,4.41-5.44,8.51-8.96,12.17
		c-1.04,1.08-2.04,2.24-3.96,3.12c-0.93-3.4-1.07-6.45-1.16-9.5c-0.45-14.11,0.54-28.13,2.91-42.04c1-5.87,2.21-11.72,3.33-17.57
		c1.25-6.5,1.64-13.04,0.98-19.64c-0.27-2.67-1.09-5.11-2.78-7.17c-2.95-3.6-6.53-6.45-10.7-8.5c-2.91-1.43-3.94-1.13-5.86,1.42
		c-0.55,0.73-1.09,1.5-1.5,2.31c-2.08,4.1-3.94,8.28-4.87,12.82c-0.77,3.71-1.51,7.42-2.23,11.13c-1.31,0.21-2.66,0.56-4.06,1.08
		c-6.74,2.48-13.44,5.04-20.09,7.77c-6.79,2.79-13.67,5.36-20.86,6.91c-3.7,0.8-7.44,1.28-11.26,0.87c-0.26-2.01,0.67-3.5,1.19-5.07
		c5.9-17.71,11.31-35.58,15.83-53.7c3.85-15.44,7.44-30.95,8.81-46.86c0.46-5.34,0.75-10.69,0.19-16.05
		c-0.56-5.41-1.91-10.55-5.31-14.95c-5.42-7.01-12.1-12.55-19.92-16.68c-5.92-3.12-11.5-2.36-16.68,1.77
		c-3.14,2.5-5.76,5.49-8.13,8.71c-3.47,4.7-6.36,9.75-8.89,15c-7.16,14.85-11.92,30.49-14.51,46.74
		c-1.91,11.98-2.52,24.03-0.75,36.13c2.02,13.79,6.89,26.31,15.99,36.99c1.28,1.5,1.65,2.79,0.77,4.52
		c-0.41,0.81-0.62,1.73-0.94,2.59c-8.78,23.84-17.96,47.52-27.62,71.02c-12.3,29.92-26.36,58.97-42.82,86.83
		c-3.74,6.33-7.62,12.57-11.94,18.53c-0.53,0.74-1.11,1.46-1.76,2.1c-0.41,0.41-0.94,0.05-1.1-0.33c-0.29-0.7-0.44-1.46-0.57-2.21
		c-1.59-9.68-2.78-19.41-3.65-29.17c-1.9-21.21-3.24-42.46-3.51-63.76c-0.15-11.79-0.3-23.58-0.19-35.37
		c0.12-12.25,0.51-24.49,0.88-36.74c0.3-9.94,0.59-19.89,1.18-29.83c0.73-12.22,1.77-24.43,2.68-36.63
		c1.59-21.23,4.55-42.29,8.02-63.27c0.12-0.75,0.31-1.5,0.55-2.23c0.23-0.71,0.75-0.82,1.43-0.53c0.4,0.17,0.84,0.26,1.34-0.22
		c-0.64-1.6-1.52-3.22-1.91-4.95l0,0c-0.4-1.77-0.29-3.65-0.45-5.48c-0.19-2.15-0.48-4.35-1.69-6.15
		c-3.32-4.92-7.72-8.71-13.11-11.19c-3.33-1.53-6.47-0.21-7.97,3.15c-0.74,1.66-1.19,3.48-1.5,5.28c-1.21,7.09-2.44,14.18-3.42,21.3
		c-2.98,21.68-5.97,43.35-8.21,65.12c-1.32,12.78-2.4,25.6-3.34,38.42c-0.81,11.14-1.38,22.3-1.84,33.47
		c-0.48,11.62-0.82,23.26-0.98,34.89c-0.13,9.34-0.04,18.69,0.2,28.02c0.47,18.38,1.63,36.72,3.15,55.04
		c0.94,11.3,2.22,22.56,4.19,33.72c1.26,7.12,3.16,13.99,6.87,20.32c2.03,3.47,4.65,5.99,8.33,7.51c6.86,2.83,13.97,4.46,21.42,4.42
		c5.25-0.03,9.88-1.67,13.88-5.15c3.61-3.14,6.66-6.75,9.57-10.51c6.87-8.85,12.9-18.25,18.55-27.91
		c14.41-24.63,26.46-50.41,37.12-76.85c8.18-20.3,16.05-40.72,23.52-61.29c0.42-1.15,0.82-2.31,1.3-3.43c0.35-0.81,1-1.09,1.86-0.75
		c0.85,0.34,1.69,0.72,2.55,1.03c14.66,5.29,28.6,4.16,41.43-5.07c4.17-3.01,8.5-5.75,12.9-8.36c-0.85,5.46-1.59,10.93-2.18,16.43
		c-1.1,10.22-1.31,20.45,0.73,30.63c1.75,8.74,5.71,16.06,12.87,21.55c5.38,4.12,11.16,7.51,17.48,9.97c2.57,1,5.18,1.81,7.96,2.03
		c5.35,0.43,9.58-1.42,12.53-5.96c1.59-2.44,2.87-5.04,4.03-7.72c3.41-7.9,5.64-16.16,7.44-24.54c2.61-12.11,5.1-24.23,7.75-36.33
		c0.9-4.11,1.84-8.21,2.89-12.27c0.15,0.79,0.3,1.59,0.49,2.38c2.95,12.25,9.33,21.81,20.87,27.54c7.33,3.64,15.04,6.03,23.13,7.1
		c8.3,1.09,15.04-1.59,19.81-8.71c2.05-3.06,3.91-6.22,5.37-9.6c1.4-3.23,2.75-6.48,4-9.76c3.05-8,6.09-16.01,8.67-24.19
		c0.47-1.49,0.62-3.22,2.05-4.38c0.09,0.41,0.26,0.71,0.22,0.99c-1.11,8.19-1.87,16.41-2.19,24.67
		c-0.42,10.75,0.23,21.42,2.47,31.96c1.28,6.05,4.15,11.19,9.32,14.77c6.27,4.33,13.28,6.92,20.74,8.21
		c4.41,0.76,8.15-0.51,10.72-4.5c1.16-1.81,2.31-3.63,3.05-5.64c1.15-3.16,2.35-6.32,3.2-9.56c3.01-11.38,5.94-22.79,8.79-34.21
		c2.64-10.57,6.19-20.81,10.6-30.76c0.31-0.7,0.64-1.39,0.89-2.11c0.22-0.63,0.03-1.22-0.49-1.64
		C573.93,664.97,571.19,665.25,568.6,668.61z M288.47,638.25c-2.79,9.68-5.94,19.26-8.95,28.88c-0.32,1.01-0.76,1.98-1.16,2.95
		c-0.05,0.11-0.28,0.26-0.37,0.22c-0.24-0.09-0.63-0.24-0.66-0.41c-0.24-1.51-0.46-3.02-0.6-4.53c-1.08-11.51-0.13-22.89,2.16-34.18
		c3.05-15.04,7.65-29.56,14.72-43.24c1.83-3.54,3.85-6.95,6.1-10.23c0.51-0.74,0.96-1.56,2.15-2.04c0.19,2.43-0.29,4.63-0.61,6.81
		C298.42,601.4,293.75,619.9,288.47,638.25z M498.92,631.37c-1.77,3.04-3.74,5.96-5.34,9.09c-7.52,14.69-14.81,29.48-20.52,45
		c-2.22,6.02-4.61,11.97-7,17.92c-1.31,3.26-2.94,6.38-4.91,9.31c-0.5,0.75-0.96,1.55-1.7,1.9c-1.22,0.01-1.27-0.96-1.55-1.56
		c-1.49-3.21-2.44-6.61-2.93-10.09c-1.27-9.15-1.36-18.27,0.84-27.33c2.8-11.53,7.01-22.4,14.01-32.13
		c5.39-7.49,12.68-12.27,21.13-15.44c3.05-1.15,6.26-1.19,9.28,0.42C500.33,629.72,499.44,630.47,498.92,631.37z"/>
	<path class="st0" d="M1049.21,626.9c-0.99-0.7-2.12-1.21-3.21-1.77c-1.36-0.7-2.45-0.48-3.7,0.59c-5.26,4.5-9.95,9.51-14.31,14.87
		c-8.31,10.23-15.78,21.09-23.56,31.71c-7.15,9.76-14.03,19.7-20.34,30.04c-6.62,10.85-13.43,21.57-19.5,32.75
		c-3.73,6.87-8.08,13.36-13.06,19.41c-0.84,1.02-1.46,2.35-3.14,2.71c-0.78-2.36-1.06-4.76-1.33-7.18
		c-1.22-10.83-1.31-21.71-1.11-32.58c0.29-16.23,1.54-32.41,3.19-48.55c2.46-24.06,6.18-47.94,10.89-71.66
		c1.97-9.9,4.36-19.71,6.52-29.57c0.39-1.77,1.15-2.99,2.94-3.71c13.04-5.27,26.02-10.67,39.61-14.42
		c3.68-1.02,7.39-1.98,11.23-2.28c1.59-0.12,3.01-0.06,4.16,1.31c0.58,0.68,1.41,1.15,2.17,1.66c0.2,0.14,0.6,0.16,0.83,0.06
		c0.44-0.19,0.7-0.61,0.61-1.11c-0.27-1.51-0.8-2.93-1.5-4.31c-1.74-3.44-4.01-6.5-6.62-9.33c-3.39-3.68-7.55-5.49-12.6-5.62
		c-7.09-0.17-14.04,0.83-20.99,1.99c-2.86,0.48-5.72,1.01-8.58,1.51c-0.12,0.02-0.28-0.12-0.47-0.2c-0.38-1.23,0.27-2.31,0.63-3.41
		c1.77-5.53,3.62-11.05,5.38-16.59c0.79-2.48,1.67-4.95,2.14-7.5c1.16-6.15,0.43-11.87-4.29-16.58c-2.28-2.28-4.58-4.52-7.19-6.42
		c-0.99-0.72-2.04-1.37-3.11-1.93c-2.69-1.4-4.11-1.11-6.08,1.06c-1.59,1.75-2.42,3.86-3.12,6.07
		c-5.35,16.76-10.72,33.51-16.09,50.26c-0.19,0.58-0.41,1.16-0.55,1.75c-0.24,1-0.9,1.53-1.85,1.84c-0.87,0.28-1.71,0.66-2.58,0.96
		c-6.34,2.24-12.6,4.68-18.66,7.62c-9.24,4.48-18.13,9.53-26.47,15.54c-2.49,1.8-4.86,3.73-6.7,6.22c-1.74,2.34-1.82,4.77-0.37,7.29
		c1,1.74,2.4,3.16,3.72,4.65c2.53,2.85,5.31,3.44,9.03,2.22c10.16-3.33,20.44-6.32,30.67-9.44c0.73-0.22,1.46-0.45,2.21-0.61
		c0.9-0.19,1.56,0.35,1.44,1.2c-0.11,0.76-0.31,1.5-0.45,2.25c-1.66,8.71-3.49,17.4-4.96,26.14c-1.44,8.6-2.75,17.22-3.93,25.85
		c-0.67,0.07-1.36,0.25-2.07,0.52c-6.29,2.41-12.4,5.19-18.51,7.99c-3.33,1.53-6.65,3.09-10,4.59c-0.95,0.42-1.85,1.07-3.27,0.9
		c0.07-1.78,0.09-3.58,0.24-5.37c0.55-6.58,0.55-13.14-0.45-19.69c-1.74-11.32-6.72-20.87-15.26-28.55c-3.08-2.77-6.36-5.3-9.87-7.5
		c-5.06-3.17-10.27-6.04-16.11-7.62c-6.23-1.68-11.8-0.52-16.79,3.52c-2.28,1.84-4.3,3.94-5.83,6.44c-1.01,1.66-2.18,2.77-4.27,3
		c-2.81,0.32-5.13,1.91-7.29,3.66c-2.15,1.74-4.09,3.7-5.81,5.87c-5.79,7.33-9.77,15.52-11.62,24.7c-1.51,7.51-2.33,15.11-2.6,22.78
		c-0.35,10.14,0.05,20.21,2.38,30.12c0.56,2.38,1.24,4.72,2.09,6.97c-4.13,10.22-7.86,20.6-10.98,31.22
		c-3.88,13.21-7.53,26.49-12,39.52c-3.37,9.85-7,19.61-12.05,28.75c-1.48,2.67-3.21,5.21-4.87,7.77c-0.21,0.33-0.7,0.59-1.09,0.63
		c-0.52,0.05-0.75-0.46-0.84-0.9c-0.58-3.01-1.23-6-1.7-9.02c-1.36-8.96-1.57-17.99-1.81-27.03c-0.38-13.79,0.2-27.55,1.36-41.29
		c1.23-14.49,2.97-28.92,4.94-43.32c3.83-27.89,8.14-55.71,13.67-83.32c4.22-21.08,8.7-42.11,13.07-63.16
		c-4.59,2.54-9.82,3.91-15.37,3.91c-0.93,0-1.88-0.04-2.85-0.11c-3.21-0.26-6.07-0.92-8.46-1.64c-2.15,6.26-4.22,12.55-6.05,18.93
		c-4.63,16.03-8.22,32.31-11.76,48.61c-2.11,9.71-4.19,19.44-6.31,29.15c-0.52,2.36-0.65,2.43-3.07,1.71
		c-3.68-1.1-7.38-1.92-11.25-1.96c-6.79-0.08-12.95,2.01-18.71,5.42c-8.05,4.77-14.59,11.1-19.58,19.02
		c-6.11,9.69-10.64,20.01-13.59,30.93c-1.59,4.12-3.08,8.27-4.5,12.45c-4.91,14.49-9.66,29.02-14.56,43.51
		c-5.12,15.14-11.84,29.53-20.64,42.91c-1.49,2.27-3.15,4.43-5.19,7.28c-0.82-2.55-0.6-4.24-0.47-5.9
		c1.12-14.84,3.73-29.44,7.79-43.75c2.42-8.53,5.25-16.94,7.91-25.41c1.89-6.01,3.13-12.14,3.51-18.43
		c0.44-7.2-1.51-13.64-6.25-19.12c-1.6-1.85-3.32-3.61-5.13-5.25c-5.02-4.56-10.61-8.27-16.75-11.16c-1.7-0.8-1.8-1.13-1.15-2.83
		c0.76-2,1.63-3.96,2.31-6c2.52-7.56,4.89-15.15,5-23.23c0.09-6.36-1.66-12.1-5.82-16.98c-5.44-6.39-12-11.37-19.61-14.87
		c-8.33-3.83-16.1-2.32-23.25,3.08c-2.58,1.95-4.71,4.36-6.59,7c-4.79,6.69-7.87,14.14-9.65,22.14c-0.97,4.36-1.29,8.76-1.04,13.22
		c0.31,5.56,2.24,10.47,5.87,14.64c6.84,7.86,15.06,13.87,24.77,17.74c3.4,1.35,7.02,2.07,10.29,3.81c1.54,0.83,3.22,1,4.8-0.04
		c1.09-0.72,2.32-0.67,3.54-0.72c3.06-0.12,6.12-0.27,9.18-0.39c0.92-0.04,1.84-0.07,2.75-0.03c0.67,0.03,1.19,0.47,1.22,1.12
		c0.05,1.37,0.14,2.78-0.1,4.11c-0.61,3.31-1.18,6.64-2.15,9.85c-2.44,8.05-5.04,16.05-7.68,24.03
		c-5.54,16.75-9.76,33.79-11.31,51.42c-0.58,6.57-0.7,13.14,0,19.71c0.97,9.12,4.99,16.22,13.08,20.92
		c3.98,2.31,8.01,4.49,12.32,6.1c1.57,0.58,3.19,1.07,4.82,1.49c4.91,1.29,9.02,0.09,12.34-3.88c2.27-2.71,4.24-5.61,6.03-8.65
		c7.11-12.09,12.17-25.04,15.83-38.52c3.09-11.37,6.12-22.76,8.89-34.22c3.05,7.67,8.4,13.36,16.56,16.75
		c5.11,2.12,10.28,3.93,15.74,4.83c7.02,1.16,13.4,0.02,18.67-5.18c0.5-0.49,0.91-1.3,2.13-1.03c0.59,1.95,0.36,4.08,0.46,6.16
		c0.46,10.42,1.5,20.77,3.98,30.93c1.28,5.21,2.85,10.31,5.25,15.15c2.98,6.03,7.51,10.33,13.78,12.82
		c3.57,1.41,7.21,2.56,10.97,3.25c2.85,0.52,5.73,0.83,8.67,0.63c3.26-0.21,5.89-1.5,8.13-3.75c1.41-1.41,2.6-3.01,3.61-4.74
		c1.56-2.65,2.83-5.43,3.97-8.27c2.45-6.12,4.29-12.43,6.03-18.78c4.29-15.66,7.19-31.62,9.85-47.62
		c1.79-10.75,4.02-21.4,6.94-31.87c0.62,0.74,1.29,1.47,2,2.16c8.01,7.85,17.46,13.39,28.26,16.47c5.96,1.7,11.77,1.11,17.43-1.52
		c5.65-2.63,10.5-6.23,14.5-11c5.65-6.74,10.08-14.23,13.59-22.27c1.41-3.22,2.67-6.51,3.87-9.82c0.53-1.48,1.41-2.25,2.93-2.49
		c5.04-0.81,9.68-2.81,14.19-5.08c3-1.51,5.93-3.19,8.78-4.97c3.86-2.4,7.7-4.84,11.54-7.28c-1.56,13.56-2.75,27.16-3.5,40.81
		c-0.56,10.25-0.85,20.5-0.41,30.75c0.44,10.42,1.42,20.76,3.83,30.95c2.2,9.3,6.62,17.06,14.44,22.72
		c0.62,0.45,1.19,0.97,1.81,1.41c4.76,3.38,9.7,6.42,15.31,8.2c4.05,1.28,7.83,0.8,11.37-1.59c2.04-1.38,3.89-2.97,5.6-4.73
		c3-3.08,5.78-6.35,8.27-9.84c8.13-11.37,15.25-23.31,19.94-36.56c1.02-2.88,2.11-5.75,3.22-8.6c7.52-19.44,16-38.42,26.83-56.3
		c6.35-10.48,12.83-20.87,19.91-30.87C1053.65,630.56,1054.21,630.45,1049.21,626.9z M602.78,630.03c-1.5,7.2-4.04,14.06-6.77,20.86
		c-0.47,1.16-1.15,1.7-2.38,1.66c-3.05-0.09-6.1-0.15-9.15-0.22c-1.15-0.03-1.66-0.74-1.6-1.77c0.13-2.43,0.14-4.9,0.56-7.28
		c1.43-8.05,4.31-15.57,8.88-22.39c2.75-4.11,6.16-7.56,10.36-10.22c0.76-0.48,1.56-0.11,1.66,0.75c0.11,1.06,0.15,2.13,0.22,3.2
		C604.79,619.85,603.83,624.94,602.78,630.03z M734.24,639.31c-4.83,20.24-10.26,40.29-18.56,59.44
		c-3.35,7.74-7.31,15.15-12.08,22.11c-1.02,1.49-2.16,2.88-3.58,4.76c-1.55-2.39-1.54-4.42-1.75-6.37
		c-0.97-9.05-0.33-18.02,1.4-26.93c2.01-10.33,5.89-19.92,11.71-28.69c3.21-4.84,6.6-9.57,9.99-14.29c2.06-2.86,4.49-5.42,7.05-7.84
		c1.65-1.56,3.31-3.15,5.45-4.02C734.37,638.1,734.39,638.7,734.24,639.31z M856.34,666.26c-4.8,9.57-11.1,17.95-19.75,24.42
		c-2.34,1.75-4.76,3.33-7.47,4.44c-1.05,0.43-1.74,0.12-2.1-0.99c-1.45-4.54-2.31-9.21-2.82-13.93c-1.2-11.08-0.9-22.11,0.49-33.08
		c0.08-0.16,0.15-0.32,0.23-0.48c0.47-0.96,0.51-1.64,0.12-2.14c0.34-2.42,0.74-4.85,1.18-7.26c0.11-0.59,0.35-1.16,0.6-1.95
		c0.53,0.39,0.69,0.45,0.76,0.56c6.21,10.55,15.5,17.57,26.21,22.98c1.48,0.75,3.65,0.92,4.26,2.43
		C858.78,663.03,857.14,664.67,856.34,666.26z M861.94,652.45c-0.09,0.29-0.27,0.54-0.64,1.24c-2.89-2.25-4.87-4.75-6.63-7.42
		c-8.49-12.9-9.01-26.27-2.07-39.95c1.96-3.86,4.71-7.14,8.33-9.6c1.5-1.02,2.25-0.86,2.71,0.79c0.92,3.23,1.95,6.46,2.47,9.76
		C868.57,622.67,866.77,637.71,861.94,652.45z"/>
	<path class="st0" d="M479.43,797.85c-10.59,0.93-21.11,2.6-31.53,4.65c-20.87,4.08-41.43,9.56-61.8,15.6
		c-20.36,6.07-40.53,12.79-60.55,19.91c-20.03,7.16-39.84,14.64-59.65,22.74l6.15,13.64c18.87-9.05,38.2-17.69,57.58-25.93
		c19.42-8.22,39-16.06,58.82-23.26c19.82-7.18,39.86-13.81,60.27-19.06c10.2-2.64,20.51-4.91,30.93-6.45
		c10.41-1.51,20.99-2.43,31.54-1.33C500.72,796.66,490,796.95,479.43,797.85z"/>
	<path class="st0" d="M380.02,552.22c1.39,7.31,3.96,14.19,8.48,20.2c5.72,7.61,12.85,13.59,21.23,18.07
		c6.6,3.53,13.52,3.97,20.71,2.21c5.12-1.25,9.98-3.16,14.74-5.36c10.63-4.91,20.08-11.63,28.92-19.21
		c15.58-13.35,30.02-27.88,43.88-42.99c6.17-6.73,11.99-13.75,17.19-21.26c4.3-6.23,8.9-12.22,13.66-18.07
		c1.54,2.83,3.44,5.48,5.8,7.92c3.94,4.07,8.35,7.52,13.3,10.27c1.41,0.79,2.89,1.51,4.41,2.04c2.99,1.04,6.02,1.39,9.17,0.42
		c2.53-0.78,4.91-1.82,7.17-3.15c3.56-2.1,6.81-4.63,9.85-7.43c4.52-4.16,8.53-8.78,12.37-13.55c5.57-6.9,11.12-13.82,16.63-20.78
		c4.82-6.09,9.95-11.89,15.32-17.47c-1.26,6.81-2.04,13.79-2.31,20.94c-0.28,7.56,0.55,14.96,2.45,22.26
		c1.82,6.99,4.81,13.4,10.03,18.55c5.77,5.69,12.46,9.97,20.01,12.89c1.39,0.54,2.84,0.97,4.29,1.28c5.62,1.2,10.92,0.4,15.81-2.69
		c2.66-1.68,4.98-3.75,7.1-6.06c3.05-3.32,5.76-6.91,8.13-10.74c2.76-4.47,5.1-9.17,7.41-13.87c5.36-10.86,10.6-21.78,16.01-32.62
		c3.39-6.78,7.19-13.29,11.47-19.5c-1.15,6.6-2.14,13.22-2.85,19.89c-0.9,8.34-1.06,16.68,0.6,24.99c1.43,7.13,4.66,13.1,10.5,17.58
		c4.39,3.36,9.11,6.13,14.26,8.14c2.09,0.81,4.22,1.48,6.5,1.66c4.37,0.35,7.81-1.16,10.23-4.86c1.3-1.99,2.34-4.11,3.28-6.3
		c2.78-6.44,4.6-13.18,6.07-20.02c2.13-9.88,4.16-19.77,6.32-29.64c0.65-2.95,1.32-5.89,2.06-8.81c-0.38,5.26-0.63,10.52-0.59,15.79
		c0.09,12.64,1.03,25.21,3.88,37.57c1.29,5.6,2.87,11.11,5.46,16.29c2.07,4.14,5,7.44,9.08,9.68c5.63,3.08,11.56,5.19,17.94,6.17
		c4.28,0.65,7.91-0.46,11.2-3.01c3.3-2.55,6.11-5.55,7.95-9.34c1.36-2.8,2.66-5.64,3.84-8.53c1.88-4.62,3.65-9.3,5.44-13.95
		c4.04-10.48,8.15-20.93,11.4-31.7c0.14-0.47,0.3-0.94,0.44-1.41c1.68,6.45,4.63,12.27,9.41,17.21c3.94,4.07,8.35,7.52,13.3,10.27
		c1.41,0.79,2.89,1.51,4.41,2.04c2.99,1.04,6.02,1.39,9.17,0.42c2.53-0.78,4.91-1.82,7.17-3.15c3.56-2.1,6.81-4.63,9.85-7.43
		c4.52-4.16,8.53-8.78,12.37-13.55c5.57-6.9,11.12-13.82,16.63-20.78c8-10.12,16.85-19.44,26.27-28.23c1-0.94,2.02-1.87,2.96-2.87
		c1.06-1.13,1.06-1.7,0-2.89c-0.57-0.65-1.23-1.24-1.91-1.78c-0.62-0.49-1.26-0.56-2.03-0.06c-4.53,2.89-8.96,5.91-13.01,9.46
		c-10.42,9.16-20.75,18.41-30.1,28.69c-2.44,2.68-5,5.25-7.57,7.8c-4.26,4.23-8.82,8.13-13.69,11.64
		c-5.59,4.03-11.51,7.52-18.23,9.32c-4.1,1.09-4.31,1.06-5.27-3.19c-1.76-7.77-1.73-15.62-1.11-23.49c0.17-2.1,0.1-4.26,1.11-6.65
		c0.77,0.46,1.32,0.74,1.82,1.08c1.94,1.37,4.06,1.86,6.39,1.47c1.1-0.19,2.22-0.35,3.3-0.62c4.4-1.11,8.43-3.06,12.23-5.51
		c7.74-4.99,14.5-11.07,20.1-18.37c5.53-7.21,9.47-15.25,11.58-24.14c1.36-5.74,0.53-11.16-2.38-16.27
		c-2.99-5.26-6.76-9.87-11.34-13.85c-4.54-3.94-9.72-5.36-15.65-4.46c-6.25,0.95-11.56,3.8-16.31,7.83c-3.55,3-6.59,6.48-9.31,10.24
		c-10.13,13.98-16.51,29.59-19.99,46.43c-0.34,1.63-0.64,3.26-0.9,4.89c-0.3,0.59-0.6,1.18-0.89,1.78
		c-6.78,13.93-14.35,27.44-21.62,41.1c-4.23,7.94-8.73,15.72-13.69,23.23c-2.89,4.37-6.05,8.54-9.88,12.43
		c-0.43-0.52-0.64-0.69-0.73-0.9c-0.2-0.46-0.35-0.93-0.49-1.41c-2.63-8.65-3.87-17.55-4.55-26.53c-0.86-11.22-0.79-22.47,0-33.69
		c0.52-7.34,1.42-14.66,2.13-21.99c0.1-1.02,0.49-1.63,1.58-1.67c3.7-0.13,6.69-1.91,9.31-4.31c2.12-1.93,4.17-3.97,6.03-6.15
		c6.75-7.9,12.84-16.27,17.53-25.6c2.3-4.57,4.65-9.12,6.83-13.75c6.18-13.16,10.82-26.85,13.77-41.09
		c1.86-8.97,2.66-18.02,1.64-27.17c-0.78-7.03-3.24-13.29-8.26-18.43c-3.15-3.23-6.49-6.23-10.33-8.62
		c-1.27-0.79-2.62-1.45-3.96-2.09c-3.08-1.46-6.05-1.08-8.91,0.68c-2.04,1.26-3.79,2.85-5.4,4.6c-2.29,2.49-4.24,5.24-6.06,8.09
		c-4.86,7.61-8.67,15.74-12.03,24.09c-7.3,18.11-12.51,36.85-16.6,55.91c-3.23,15.04-5.89,30.18-7.89,45.41
		c-0.03,0.04-0.06,0.09-0.09,0.13c-2.18,3.35-3.93,6.95-5.63,10.57c-5.47,11.63-10.58,23.42-15.06,35.48
		c-2.52,6.79-5.45,13.41-9.04,19.72c-2.04,3.6-4.43,6.94-7.31,9.93c-0.85,0.88-1.66,1.83-3.23,2.55c-0.76-2.77-0.87-5.26-0.95-7.75
		c-0.37-11.51,0.44-22.95,2.38-34.3c0.82-4.79,1.8-9.56,2.72-14.33c1.02-5.3,1.34-10.64,0.8-16.02c-0.22-2.18-0.89-4.17-2.26-5.85
		c-2.4-2.93-5.33-5.26-8.73-6.93c-2.37-1.17-3.22-0.92-4.78,1.15c-0.45,0.6-0.89,1.22-1.22,1.88c-1.64,3.22-3.09,6.51-3.88,10.06
		c-0.3,0.14-0.61,0.31-0.92,0.52c-1.86,1.29-3.5,2.82-5.07,4.43c-5.24,5.38-10.05,11.13-14.49,17.18
		c-5.92,8.06-11.08,16.63-16.49,25.02c-3.72,5.77-7.36,11.6-11.37,17.18c-3.51,4.88-7.23,9.56-11.68,13.64
		c-5.21,4.78-10.99,8.61-17.74,10.86c-1.7,0.56-2.27,0.31-2.97-1.22c-0.42-0.91-0.78-1.84-1.11-2.78
		c-1.83-5.22-2.84-10.61-3.28-16.1c-0.57-7.12-0.14-14.22,0.7-21.3c2.08-17.72,7.51-34.33,16.59-49.71
		c4.21-7.14,9.15-13.71,15.34-19.28c1.66-1.49,3.28-3.04,5.43-3.96c0.59,1.26,0.14,2.33-0.12,3.39c-1.38,5.6-3.51,10.92-6.23,16.01
		c-1.53,2.86-3.15,5.68-4.67,8.55c-0.7,1.32-1.29,2.7-1.83,4.1c-0.53,1.38-0.28,2.7,0.62,3.88c1.54,2.01,3.38,3.66,5.6,4.89
		c1.46,0.81,2.83,0.7,4.25-0.13c1.64-0.96,3.01-2.24,4.26-3.63c3.86-4.29,7.24-8.92,9.81-14.11c1.33-2.69,2.47-5.47,3.17-8.39
		c1.19-4.97,1.37-9.99-0.92-14.66c-3.48-7.13-8.81-12.69-15.59-16.79c-3.32-2.01-6.96-2.45-10.82-1.52
		c-5.37,1.28-10,3.81-13.92,7.64c-2.69,2.62-5.06,5.54-7.18,8.63c-8.98,13.04-15.66,26.85-19.96,41.47
		c-2.2,1.57-4.33,3.22-6.37,5.01c-10.42,9.16-20.75,18.41-30.1,28.69c-2.44,2.68-5,5.25-7.57,7.8c-4.26,4.23-8.82,8.13-13.69,11.64
		c-5.6,4.03-11.51,7.52-18.23,9.32c-4.1,1.09-4.31,1.06-5.27-3.19c-1.58-6.95-1.71-13.97-1.28-21.01c1.04-1.17,2.07-2.34,3.12-3.51
		c0.98-1.1,1.85-2.35,3.14-3.12c1.03,0.22,2.11,0.24,3.24,0.05c1.1-0.19,2.22-0.35,3.3-0.62c4.4-1.11,8.43-3.06,12.23-5.51
		c7.74-4.98,14.5-11.07,20.1-18.37c5.53-7.21,9.47-15.25,11.58-24.14c1.36-5.74,0.53-11.16-2.38-16.27
		c-2.99-5.26-6.76-9.87-11.34-13.85c-4.54-3.94-9.72-5.37-15.65-4.46c-6.25,0.95-11.56,3.8-16.31,7.83
		c-3.55,3.01-6.59,6.48-9.31,10.24c-10.13,13.98-16.51,29.59-19.99,46.43c-1.42,6.86-2.24,13.74-1.98,20.67
		c-7.69,6.74-15.21,13.69-22.57,20.8c-3.95,3.82-7.85,7.7-11.38,11.93c-10.58,12.68-22,24.56-33.8,36.1
		c-8.57,8.39-17.23,16.68-26.69,24.09c-9.29,7.27-19.26,13.37-30.4,17.4c-3.88,1.4-7.81,2.6-11.99,2.77
		c-3.24,0.13-3.29,0.2-4.35-2.73c-0.68-1.87-1.28-3.78-1.77-5.72c-2.15-8.56-2.42-17.31-2.23-26.06c0.21-9.49,1.26-18.93,2.78-28.3
		c4.6-28.3,11.96-55.87,21.95-82.74c5.54-14.89,12-29.36,20.26-42.96c5.99-9.86,12.81-19.08,21.11-27.14
		c5.41-5.25,11.3-9.82,18.12-13.12c8.24-3.98,16.86-5.21,25.87-3.59c0.86,0.15,1.69,0.42,2.54,0.62c1.26,0.3,1.87,1.13,2,2.39
		c0.25,2.36,0.42,4.72,0.21,7.1c-0.51,5.6-1.33,11.16-2.83,16.58c-0.87,3.16,0.06,5.6,2.38,7.73c2.24,2.05,3.37,2.12,5.87,0.26
		c1.11-0.83,2.04-1.84,2.84-2.97c1.16-1.64,2.08-3.41,2.76-5.3c2.67-7.38,1.94-14.51-1.69-21.36c-3.79-7.16-8.86-13.28-15.29-18.23
		c-3.59-2.76-7.6-4.76-11.94-6.11c-5.98-1.86-11.97-1.98-18.1-0.57c-7.33,1.68-13.78,5.05-19.77,9.44
		c-6.48,4.76-12.11,10.42-17.21,16.61c-8.77,10.66-16.03,22.29-22.34,34.55c-8.59,16.7-15.39,34.13-21.07,52
		c-7.99,25.14-14.46,50.63-17.43,76.91c-0.95,8.45-1.23,16.93-0.84,25.43C378.46,543.86,379.23,548.05,380.02,552.22z
		 M898.95,426.65l-0.06-0.19l0.14,0.11C899,426.6,898.97,426.63,898.95,426.65z M898.65,424.16c0.75-2.38,1.49-4.77,2.34-7.11
		c3.13-8.6,7.15-16.75,12.62-24.12c3.98-5.37,8.75-9.91,14.39-13.5c2.61-1.66,5.34-3.13,8.64-3.66c0.36,1.33,0,2.5-0.29,3.7
		c-1.77,7.26-5.11,13.78-9.54,19.75c-7.41,9.99-15.96,18.84-26.22,25.96c-0.57,0.39-1.05,0.92-1.57,1.39
		C898.26,425.87,898.39,425,898.65,424.16z M832.67,376.68c3.27-16.54,7.52-32.81,13.31-48.65c3.31-9.04,7.06-17.86,12.2-26.04
		c1.06-1.69,2.2-3.33,3.35-4.97c0.34-0.48,0.65-1.11,1.62-1.06c0.1,3.33-0.35,6.62-0.87,9.89c-2.27,14.25-6.67,27.86-12.34,41.09
		c-3.29,7.69-7.05,15.15-11.02,22.51c-1.84,3.4-3.66,6.82-5.52,10.2c-0.35,0.63-0.5,1.46-1.36,1.74
		C831.78,379.75,832.37,378.23,832.67,376.68z M567.84,448.28l0.14,0.11c-0.03,0.03-0.05,0.05-0.08,0.08L567.84,448.28z
		 M567.6,445.97c0.75-2.38,1.49-4.77,2.34-7.11c3.13-8.6,7.15-16.75,12.62-24.12c3.98-5.37,8.75-9.91,14.39-13.5
		c2.61-1.66,5.34-3.13,8.64-3.66c0.36,1.33,0,2.5-0.29,3.7c-1.77,7.26-5.11,13.78-9.54,19.75c-7.41,9.99-15.96,18.84-26.22,25.96
		c-0.57,0.4-1.05,0.92-1.57,1.39C567.21,447.69,567.34,446.82,567.6,445.97L567.6,445.97z"/>
	<path class="st0" d="M749.38,391.34c3.67,4.54,8.24,7.97,13.49,10.47c0.88,0.42,1.81,0.8,2.86,0.77c1.47-0.04,2.05-0.69,1.72-2.1
		c-1.61-6.94-1.02-13.62,2.46-19.92c1.02-1.84,0.93-3.61-0.05-5.32c-0.61-1.07-1.41-2.07-2.29-2.94c-3.15-3.1-6.81-5.46-10.95-7.01
		c-1.04-0.39-2.14-0.69-3.24-0.84c-2.04-0.28-3.69,0.37-4.58,2.38c-0.35,0.8-0.77,1.57-1.06,2.39c-1.44,4.04-2.18,8.18-1.88,13.09
		C745.83,385.35,747.12,388.55,749.38,391.34z"/>
	<path class="st0" d="M595.71,343.95c7.43-2.84,14.75-6.02,21.83-9.69c7.05-3.71,13.95-7.9,19.99-13.22
		c3.01-2.65,5.79-5.64,7.92-9.06c2.13-3.4,3.54-7.31,3.55-11.21c-0.7,3.85-2.68,7.23-5.17,10.01c-2.51,2.8-5.52,5.08-8.72,7.03
		c-6.41,3.92-13.49,6.69-20.69,9c-7.22,2.27-14.61,4.05-22.06,5.49c-7.4,1.43-15.08,2.59-22.33,3.29l2.85,15.94
		C580.84,349.3,588.23,346.79,595.71,343.95z"/>
</g>
<g>
</g>
<g>
</g>
<g>
</g>
<g>
</g>
<g>
</g>
<g>
</g>
<g>
</g>
<g>
</g>
<g>
</g>
<g>
</g>
<g>
</g>
<g>
</g>
<g>
</g>
<g>
</g>
<g>
</g>
</svg>
